<?xml version="1.0" standalone="no"?>
<!DOCTYPE svg PUBLIC "-//W3C//DTD SVG 20010904//EN"
 "http://www.w3.org/TR/2001/REC-SVG-20010904/DTD/svg10.dtd">
<svg version="1.0" xmlns="http://www.w3.org/2000/svg"
 width="255.000000pt" height="255.000000pt" viewBox="0 0 255.000000 255.000000"
 preserveAspectRatio="xMidYMid meet">
<metadata>
Created by potrace 1.16, written by Peter Selinger 2001-2019
</metadata>
<g transform="translate(0.000000,255.000000) scale(0.100000,-0.100000)"
fill="#000000" stroke="none">
<path d="M2146 1864 c-73 -88 -410 -269 -781 -419 -400 -162 -723 -298 -852
-360 -144 -69 -289 -159 -322 -201 l-19 -25 -22 58 c-12 32 -32 102 -44 156
-12 54 -25 94 -29 91 -28 -29 61 -374 96 -374 6 0 8 -3 4 -6 -9 -9 70 -73 120
-97 32 -16 43 -27 45 -48 l3 -27 40 35 c22 19 31 31 21 27 -26 -10 -36 12 -36
84 0 56 -2 64 -22 71 -13 5 -26 7 -30 4 -32 -18 -83 -11 -92 13 -12 31 74 93
249 178 251 123 312 151 431 197 185 70 415 172 448 198 6 5 119 57 251 116
132 59 249 114 261 121 11 8 23 12 26 9 3 -3 60 22 128 55 114 57 125 60 156
50 41 -14 54 -7 54 28 0 19 -46 106 -54 101 0 0 -14 -16 -30 -35z"/>
<path d="M317 1688 c-54 -29 -125 -76 -157 -106 -33 -29 -61 -48 -61 -40 -1 7
-7 -16 -14 -51 -16 -78 -6 -119 39 -169 l33 -35 36 28 35 29 -24 54 c-55 125
-10 215 150 299 45 23 77 42 71 42 -5 0 -54 -23 -108 -51z"/>
<path d="M2367 1703 c-2 -22 5 -80 19 -136 12 -53 26 -129 30 -167 3 -39 10
-70 15 -70 20 0 31 85 20 153 -10 62 -67 257 -75 257 -2 0 -6 -17 -9 -37z"/>
<path d="M2429 1008 c-6 -13 -26 -41 -44 -63 -18 -22 -36 -51 -40 -65 -10 -33
-68 -151 -95 -195 -22 -35 -22 -35 -1 -27 35 13 90 72 113 121 22 48 89 251
82 251 -2 0 -9 -10 -15 -22z"/>
<path d="M1619 826 c-8 -8 -310 -99 -667 -201 -200 -58 -400 -119 -446 -138
l-84 -33 -48 60 c-43 52 -49 57 -52 37 -3 -15 13 -41 53 -86 48 -55 64 -66
113 -80 70 -21 79 -28 93 -76 12 -39 54 -69 97 -69 11 0 37 -16 58 -35 21 -19
42 -35 47 -35 4 0 28 -9 51 -20 24 -11 83 -32 132 -46 80 -25 108 -28 274 -31
171 -4 192 -2 281 20 113 29 226 73 254 97 11 10 35 21 52 25 18 3 36 11 39
17 4 6 -1 8 -12 4 -80 -24 -337 -62 -370 -53 -12 3 -8 5 12 6 46 2 231 30 303
47 35 8 66 12 69 10 11 -12 64 28 73 54 8 22 22 33 62 47 31 11 71 37 101 66
50 48 50 48 13 27 -108 -63 -191 -92 -377 -134 -196 -43 -581 -92 -872 -111
-87 -5 -88 -5 -88 18 0 55 21 61 440 126 304 47 616 116 700 156 40 18 43 19
-155 -30 -228 -57 -464 -99 -975 -174 -98 -14 -128 -16 -140 -6 -8 7 -22 15
-31 18 -9 3 -19 18 -22 34 -3 15 -22 47 -42 70 l-35 42 20 19 c31 29 68 41
440 147 399 114 702 213 654 215 -6 0 -13 -2 -15 -4z"/>
</g>
</svg>
