<?xml version="1.0" encoding="UTF-8" standalone="no"?>
<!-- Created with Inkscape (http://www.inkscape.org/) -->

<svg
   version="1.1"
   id="svg538"
   width="800"
   height="800"
   viewBox="0 0 800 800"
   sodipodi:docname="diamond-ribbon-publicdomainvectors.org.svg"
   inkscape:version="1.2 (dc2aedaf03, 2022-05-15)"
   xmlns:inkscape="http://www.inkscape.org/namespaces/inkscape"
   xmlns:sodipodi="http://sodipodi.sourceforge.net/DTD/sodipodi-0.dtd"
   xmlns="http://www.w3.org/2000/svg"
   xmlns:svg="http://www.w3.org/2000/svg">
  <defs
     id="defs542">
    <clipPath
       clipPathUnits="userSpaceOnUse"
       id="clipPath554">
      <path
         d="M 0,600 H 600 V 0 H 0 Z"
         id="path552" />
    </clipPath>
  </defs>
  <sodipodi:namedview
     id="namedview540"
     pagecolor="#a1874d"
     bordercolor="a1874d"
     borderopacity="0.25"
     inkscape:showpageshadow="2"
     inkscape:pageopacity="0.0"
     inkscape:pagecheckerboard="0"
     inkscape:deskcolor="#a1874d"
     showgrid="false"
     inkscape:zoom="1.04625"
     inkscape:cx="400"
     inkscape:cy="400.4779"
     inkscape:window-width="1920"
     inkscape:window-height="1017"
     inkscape:window-x="-8"
     inkscape:window-y="-8"
     inkscape:window-maximized="1"
     inkscape:current-layer="g546">
    <inkscape:page
       x="0"
       y="0"
       id="page544"
       width="800"
       height="800" />
  </sodipodi:namedview>
  <g
     id="g546"
     inkscape:groupmode="layer"
     inkscape:label="Page 1"
     transform="matrix(1.3333333,0,0,-1.3333333,0,800)">
    <g
       id="g548">
      <g
         id="g550"
         clip-path="url(#clipPath554)">
        <g
           id="g556"
           transform="translate(469.1123,146.5049)">
          <path
             d="m 0,0 c -7.543,5.466 -16.806,7.845 -24.75,5.426 l -5.182,-1.577 3.965,-3.689 c 6.107,-5.681 11.999,-16.491 13.253,-25.489 -6.561,10.294 -25.585,17.918 -45.589,25.935 -21.005,8.42 -44.726,17.927 -46.382,28.998 0.562,-0.584 1.139,-1.143 1.727,-1.677 2.463,-2.206 5.146,-4.041 7.941,-5.616 2.804,-1.558 5.716,-2.919 8.764,-3.791 -2.855,1.355 -5.454,3.147 -7.89,5.084 -2.426,1.947 -4.665,4.111 -6.553,6.468 -1.194,1.497 -2.217,3.101 -2.986,4.739 0.052,0.089 0.108,0.178 0.164,0.267 1.689,-2.213 3.69,-4.014 5.751,-5.625 2.77,-2.13 5.709,-3.917 8.741,-5.477 3.036,-1.541 6.155,-2.921 9.396,-3.866 -3.05,1.428 -5.878,3.249 -8.58,5.193 -2.692,1.961 -5.229,4.113 -7.47,6.467 -1.756,1.856 -3.32,3.886 -4.412,5.996 2.218,-2.732 4.825,-4.843 7.51,-6.715 3.057,-2.074 6.248,-3.835 9.518,-5.396 3.274,-1.536 6.612,-2.935 10.059,-3.954 -3.258,1.502 -6.325,3.353 -9.291,5.313 -2.953,1.975 -5.779,4.128 -8.349,6.48 -1.915,1.783 -3.719,3.71 -5.111,5.753 2.549,-2.656 5.419,-4.697 8.344,-6.539 3.328,-2.048 6.777,-3.791 10.287,-5.357 3.517,-1.546 7.083,-2.967 10.743,-4.058 -3.472,1.576 -6.787,3.455 -10.014,5.436 -3.216,1.998 -6.327,4.153 -9.206,6.518 -1.973,1.645 -3.865,3.405 -5.467,5.284 2.76,-2.455 5.759,-4.382 8.809,-6.131 3.597,-2.028 7.302,-3.766 11.056,-5.347 3.761,-1.564 7.563,-3.003 11.445,-4.169 -3.695,1.652 -7.262,3.557 -10.753,5.564 -3.476,2.024 -6.868,4.189 -10.047,6.568 -1.936,1.459 -3.803,3.012 -5.495,4.665 2.852,-2.178 5.868,-3.939 8.927,-5.555 3.863,-2.022 7.824,-3.766 11.826,-5.366 4.009,-1.584 8.058,-3.045 12.166,-4.284 -3.925,1.726 -7.752,3.657 -11.502,5.695 -3.743,2.052 -7.409,4.231 -10.883,6.627 -1.883,1.302 -3.72,2.677 -5.438,4.132 2.893,-1.945 5.901,-3.559 8.945,-5.058 4.13,-2.023 8.348,-3.777 12.603,-5.4 4.259,-1.612 8.557,-3.092 12.899,-4.406 -4.163,1.8 -8.249,3.756 -12.263,5.829 -4.008,2.082 -7.948,4.281 -11.713,6.697 -1.875,1.202 -3.722,2.46 -5.476,3.79 2.949,-1.791 5.981,-3.326 9.047,-4.745 4.397,-2.032 8.874,-3.803 13.384,-5.451 4.513,-1.639 9.063,-3.144 13.645,-4.528 -4.404,1.872 -8.755,3.857 -13.033,5.962 -4.274,2.112 -8.488,4.336 -12.54,6.773 -1.606,0.965 -3.183,1.976 -4.726,3.018 1.476,-0.657 3.129,-1.378 4.945,-2.168 C -47.332,35.439 -13.927,20.886 0,0 m -147.943,39.12 0.387,1.214 26.208,42.102 c 2.965,-0.122 5.881,-0.274 8.736,-0.457 z m -63.168,41.129 c 2.122,0.152 4.647,0.325 7.514,0.509 l 20.673,-31.219 z M -261.259,0.606 c -20.003,-8.017 -39.028,-15.641 -45.587,-25.935 1.253,8.998 7.145,19.808 13.252,25.489 l 3.965,3.689 -5.181,1.577 c -2.102,0.639 -4.293,0.942 -6.524,0.942 -6.201,0 -12.68,-2.35 -18.227,-6.368 13.925,20.888 47.332,35.439 65.244,43.243 1.813,0.79 3.467,1.511 4.942,2.168 -1.543,-1.042 -3.119,-2.053 -4.726,-3.018 -4.051,-2.437 -8.266,-4.661 -12.54,-6.773 -4.279,-2.105 -8.628,-4.09 -13.033,-5.962 4.581,1.384 9.133,2.889 13.644,4.528 4.511,1.648 8.989,3.419 13.386,5.451 3.454,1.598 6.867,3.339 10.164,5.437 -2.095,-1.675 -4.332,-3.244 -6.63,-4.72 -3.765,-2.415 -7.706,-4.615 -11.714,-6.695 -4.014,-2.072 -8.1,-4.029 -12.263,-5.829 4.343,1.313 8.641,2.793 12.899,4.405 4.255,1.623 8.474,3.376 12.604,5.402 3.483,1.714 6.914,3.604 10.183,5.945 -2.064,-1.882 -4.353,-3.626 -6.713,-5.257 -3.474,-2.396 -7.14,-4.576 -10.883,-6.627 -3.751,-2.039 -7.577,-3.971 -11.502,-5.695 4.108,1.239 8.157,2.699 12.166,4.284 4.002,1.601 7.962,3.343 11.827,5.366 3.461,1.828 6.863,3.851 10.036,6.451 -1.953,-2.092 -4.264,-4.007 -6.642,-5.799 -3.18,-2.378 -6.57,-4.543 -10.048,-6.567 -3.488,-2.007 -7.056,-3.912 -10.753,-5.563 3.882,1.165 7.686,2.605 11.447,4.168 3.754,1.582 7.458,3.319 11.055,5.349 3.282,1.88 6.506,3.96 9.434,6.695 -1.726,-2.187 -3.876,-4.21 -6.129,-6.087 -2.879,-2.364 -5.99,-4.519 -9.205,-6.518 -3.228,-1.981 -6.542,-3.86 -10.014,-5.436 3.661,1.091 7.226,2.512 10.744,4.058 3.508,1.567 6.956,3.311 10.286,5.357 3.031,1.909 6.008,4.025 8.622,6.828 -1.43,-2.237 -3.348,-4.344 -5.426,-6.278 -2.569,-2.353 -5.395,-4.505 -8.349,-6.481 -2.966,-1.959 -6.033,-3.81 -9.29,-5.312 3.448,1.018 6.784,2.418 10.059,3.957 3.27,1.557 6.461,3.319 9.518,5.394 2.751,1.918 5.425,4.084 7.677,6.918 -1.095,-2.267 -2.738,-4.453 -4.618,-6.437 -2.239,-2.353 -4.776,-4.507 -7.466,-6.466 -2.704,-1.945 -5.532,-3.765 -8.583,-5.193 3.242,0.945 6.361,2.325 9.398,3.865 3.031,1.56 5.97,3.349 8.74,5.476 2.306,1.805 4.51,3.877 6.311,6.466 0.028,-0.054 0.053,-0.109 0.08,-0.162 -0.771,-2.05 -2.02,-4.065 -3.499,-5.92 -1.886,-2.357 -4.125,-4.521 -6.553,-6.469 -2.435,-1.936 -5.033,-3.727 -7.889,-5.085 3.047,0.872 5.96,2.236 8.76,3.792 2.798,1.575 5.481,3.41 7.946,5.617 0.498,0.454 0.983,0.934 1.465,1.423 -3.892,-10.258 -26.08,-19.156 -45.867,-27.088 m -129.315,275.16 64.826,-13.094 h 1.695 l 61.918,-93.508 c -8.2,-1.471 -15.65,-2.983 -22.215,-4.431 -1.191,-0.264 -2.382,-0.533 -3.571,-0.804 z m 61.826,101.325 1.82,-104.638 -68.699,13.876 z m 4.047,5.494 79.363,14.173 -78.475,-124.17 -1.889,108.637 z m 269.715,10.123 3.518,-3.299 45.14,-110.141 -0.065,-0.011 -1.404,-0.139 -110.937,118.143 z M 53.533,290.971 -3.209,279.877 -45.996,384.278 Z M -43.02,166.395 c -7.039,1.447 -14.863,2.917 -23.381,4.309 l 61.884,99.409 56.01,10.932 z m -90.99,-83.611 c 3.05,-0.047 6.079,-0.119 9.074,-0.217 l -18.757,-30.131 z m -52.166,-1.048 14.558,-43.626 -28.389,42.871 c 4.119,0.251 8.781,0.511 13.831,0.755 m 28.163,0.971 c 4.679,0.09 9.44,0.145 14.208,0.147 l -14.35,-44.973 z m -18.442,-0.545 c 4.905,0.192 10.049,0.358 15.322,0.48 l -0.145,-45.966 z m -70.094,180.51 29.108,-87.234 c -15.14,-1.544 -29.041,-3.553 -41.347,-5.685 l -61.526,92.919 z m -73.932,9.353 75.487,119.441 -2.756,-119.448 z m 156.813,-4.41 -74.733,4.152 2.769,119.938 z m 36.824,123.491 40.431,-119.452 -69.833,-4.135 z m 50.065,-118.741 -40.042,118.304 105.109,-111.934 z m 0.281,-9.368 68.023,6.656 -61.262,-98.415 c -10.608,1.672 -22.217,3.207 -34.63,4.428 z m -80.958,-4.919 70.91,4.199 -27.365,-85.751 c -13.8,1.129 -28.482,1.832 -43.799,1.891 z m -3.372,-79.656 c -16.518,-0.033 -32.301,-0.822 -47.053,-2.087 l -28.683,85.961 75.99,-4.221 z m -74.665,219.351 H -129.1 l 0.376,-1.109 -30.758,-129.282 -0.464,0.026 -75.549,130.273 z m -61.995,-243.426 6.414,2.452 c 0.079,0.029 0.16,0.056 0.239,0.085 31.275,7.47 77.352,15.307 131.057,15.307 53.994,0 100.275,-7.922 131.558,-15.428 l 6.324,-2.416 c 4.263,-1.67 8.511,-3.385 12.753,-5.114 7.731,-3.151 15.436,-6.37 23.127,-9.611 10e-4,-0.03 10e-4,-0.063 0.003,-0.093 -7.297,2.156 -14.601,4.28 -21.926,6.328 -4.354,1.216 -8.711,2.414 -13.082,3.562 -2.189,0.57 -4.376,1.136 -6.576,1.664 -1.096,0.268 -2.201,0.519 -3.305,0.761 -1.108,0.205 -2.217,0.516 -3.353,0.485 1.121,-0.099 2.18,-0.532 3.25,-0.861 1.066,-0.366 2.127,-0.739 3.183,-1.132 2.116,-0.774 4.218,-1.585 6.318,-2.399 4.199,-1.638 8.379,-3.326 12.553,-5.03 7.713,-3.149 15.391,-6.383 23.051,-9.651 v -0.049 c -7.268,2.167 -14.545,4.293 -21.849,6.325 -4.285,1.193 -8.577,2.363 -12.884,3.48 -2.155,0.551 -4.31,1.101 -6.477,1.611 -1.082,0.26 -2.168,0.501 -3.257,0.732 -1.092,0.196 -2.186,0.495 -3.304,0.456 1.105,-0.092 2.147,-0.512 3.202,-0.832 1.05,-0.355 2.096,-0.721 3.136,-1.104 2.083,-0.754 4.155,-1.55 6.223,-2.347 4.133,-1.606 8.246,-3.266 12.35,-4.945 7.66,-3.134 15.278,-6.37 22.87,-9.652 v -0.018 c -7.206,2.168 -14.42,4.288 -21.667,6.294 -4.219,1.168 -8.443,2.312 -12.686,3.395 -2.123,0.539 -4.246,1.07 -6.38,1.561 -1.066,0.25 -2.137,0.483 -3.21,0.703 -1.075,0.187 -2.154,0.473 -3.254,0.424 1.087,-0.08 2.115,-0.489 3.154,-0.801 1.036,-0.344 2.064,-0.7 3.089,-1.073 2.052,-0.738 4.09,-1.515 6.125,-2.298 4.07,-1.572 8.116,-3.206 12.152,-4.861 7.568,-3.102 15.086,-6.326 22.573,-9.604 -7.105,2.159 -14.222,4.256 -21.372,6.228 -4.152,1.147 -8.311,2.264 -12.488,3.314 -2.09,0.524 -4.182,1.037 -6.284,1.51 -1.049,0.239 -2.104,0.464 -3.161,0.672 -1.058,0.179 -2.122,0.451 -3.204,0.394 1.07,-0.072 2.084,-0.469 3.107,-0.771 1.019,-0.332 2.032,-0.682 3.042,-1.044 2.02,-0.72 4.026,-1.479 6.029,-2.247 4.004,-1.541 7.982,-3.145 11.949,-4.778 7.434,-3.055 14.809,-6.243 22.148,-9.497 -6.96,2.13 -13.936,4.197 -20.946,6.123 -4.086,1.126 -8.179,2.212 -12.292,3.232 -2.056,0.507 -4.116,1.001 -6.186,1.456 -1.033,0.23 -2.071,0.446 -3.113,0.644 -1.041,0.169 -2.09,0.428 -3.154,0.362 1.053,-0.064 2.053,-0.448 3.06,-0.74 1.004,-0.322 2,-0.661 2.994,-1.015 1.988,-0.701 3.963,-1.442 5.932,-2.194 3.939,-1.51 7.852,-3.084 11.749,-4.696 7.299,-3.008 14.53,-6.164 21.721,-9.393 -6.815,2.104 -13.648,4.138 -20.519,6.018 -4.018,1.105 -8.048,2.164 -12.095,3.152 -2.024,0.492 -4.05,0.968 -6.088,1.406 -1.019,0.218 -2.04,0.426 -3.065,0.612 -1.025,0.16 -2.059,0.406 -3.103,0.33 1.034,-0.055 2.019,-0.424 3.011,-0.709 0.988,-0.309 1.968,-0.642 2.946,-0.983 1.956,-0.685 3.899,-1.408 5.838,-2.146 3.871,-1.476 7.718,-3.023 11.545,-4.612 7.161,-2.962 14.253,-6.084 21.295,-9.29 -6.672,2.078 -13.362,4.078 -20.094,5.915 -3.95,1.084 -7.914,2.113 -11.896,3.071 -1.991,0.477 -3.987,0.935 -5.992,1.356 -1.003,0.206 -2.006,0.406 -3.017,0.579 -1.008,0.15 -2.028,0.384 -3.052,0.3 1.017,-0.047 1.987,-0.403 2.962,-0.678 0.973,-0.299 1.938,-0.623 2.9,-0.954 1.925,-0.667 3.836,-1.369 5.74,-2.093 3.807,-1.447 7.587,-2.964 11.346,-4.53 7.025,-2.918 13.973,-6.006 20.869,-9.187 -6.527,2.051 -13.075,4.019 -19.667,5.812 -3.883,1.063 -7.783,2.063 -11.7,2.991 -1.959,0.462 -3.923,0.901 -5.894,1.303 -0.989,0.196 -1.976,0.388 -2.969,0.55 -0.992,0.141 -1.997,0.359 -3.003,0.266 1,-0.038 1.956,-0.379 2.915,-0.645 0.957,-0.288 1.906,-0.603 2.853,-0.923 1.892,-0.65 3.772,-1.334 5.643,-2.043 3.74,-1.417 7.455,-2.904 11.144,-4.447 6.888,-2.875 13.695,-5.93 20.445,-9.083 -6.384,2.02 -12.791,3.955 -19.243,5.707 -3.817,1.041 -7.652,2.012 -11.503,2.911 -1.925,0.449 -3.858,0.867 -5.797,1.252 -0.973,0.185 -1.942,0.369 -2.922,0.519 -0.974,0.13 -1.963,0.332 -2.951,0.231 0.982,-0.028 1.925,-0.356 2.867,-0.611 0.943,-0.276 1.875,-0.584 2.808,-0.892 1.858,-0.634 3.707,-1.298 5.545,-1.992 3.676,-1.387 7.322,-2.844 10.941,-4.367 6.753,-2.832 13.418,-5.852 20.022,-8.98 -6.241,1.992 -12.506,3.894 -18.819,5.606 -3.75,1.017 -7.519,1.965 -11.305,2.831 -1.893,0.435 -3.794,0.833 -5.701,1.202 -0.956,0.173 -1.91,0.347 -2.872,0.486 -0.959,0.122 -1.932,0.309 -2.902,0.199 0.966,-0.021 1.893,-0.333 2.82,-0.58 0.927,-0.263 1.843,-0.564 2.76,-0.86 1.827,-0.616 3.644,-1.261 5.448,-1.941 3.611,-1.355 7.19,-2.79 10.741,-4.287 C -0.672,83.22 5.795,80.26 12.199,77.188 6.16,79.13 0.088,80.954 -6.025,82.609 c -3.685,0.995 -7.387,1.921 -11.109,2.755 -1.859,0.421 -3.73,0.799 -5.603,1.15 -0.941,0.16 -1.878,0.329 -2.824,0.455 -0.943,0.112 -1.901,0.283 -2.85,0.165 0.946,-0.013 1.858,-0.309 2.769,-0.547 0.912,-0.251 1.814,-0.544 2.714,-0.828 1.796,-0.601 3.58,-1.224 5.352,-1.89 3.546,-1.323 7.055,-2.734 10.537,-4.207 6.418,-2.724 12.74,-5.648 18.998,-8.69 -5.894,1.91 -11.823,3.698 -17.792,5.314 -3.62,0.969 -7.256,1.876 -10.912,2.678 -1.827,0.407 -3.666,0.765 -5.508,1.099 -0.925,0.149 -1.846,0.307 -2.775,0.421 -0.926,0.102 -1.869,0.257 -2.799,0.13 0.93,-0.006 1.827,-0.284 2.723,-0.512 0.895,-0.24 1.78,-0.523 2.666,-0.797 1.763,-0.581 3.516,-1.185 5.255,-1.837 3.479,-1.292 6.919,-2.682 10.333,-4.13 6.291,-2.69 12.486,-5.583 18.611,-8.602 -2.354,0.767 -4.709,1.517 -7.081,2.215 -3.61,1.093 -7.258,2.064 -10.907,2.993 -6.788,1.671 -13.637,3.106 -20.545,3.942 -7.986,2.023 -16.509,3.91 -24.926,5.523 -12.505,2.91 -25.245,4.894 -38.008,6.353 -14.984,2.518 -34.482,3.362 -53.783,3.369 -2.199,0.034 -4.397,0.054 -6.595,0.028 -5.871,-0.04 -11.745,0.062 -17.614,-0.096 -23.477,-0.509 -46.921,-2.188 -70.217,-5.084 -0.577,-0.07 -1.152,-0.154 -1.729,-0.226 -8.968,-0.967 -19.264,-2.594 -29.671,-4.626 -1.128,-0.208 -2.258,-0.403 -3.385,-0.618 -2.887,-0.517 -5.743,-1.251 -8.61,-1.866 -2.676,-0.639 -5.375,-1.13 -8.023,-1.901 -3.594,-0.876 -7.101,-1.782 -10.462,-2.707 0.786,0.27 1.566,0.561 2.359,0.817 0.868,0.264 1.738,0.538 2.619,0.764 0.88,0.22 1.762,0.483 2.674,0.478 -0.91,0.135 -1.838,-10e-4 -2.747,-0.095 -0.914,-0.101 -1.818,-0.248 -2.727,-0.39 -1.809,-0.311 -3.617,-0.651 -5.41,-1.045 -3.594,-0.77 -7.162,-1.657 -10.717,-2.603 -5.826,-1.576 -11.612,-3.328 -17.359,-5.204 6.111,3.009 12.29,5.898 18.567,8.581 3.413,1.448 6.854,2.838 10.334,4.13 1.739,0.652 3.49,1.256 5.254,1.837 0.886,0.274 1.771,0.557 2.668,0.797 0.895,0.228 1.793,0.506 2.722,0.512 -0.929,0.127 -1.874,-0.028 -2.798,-0.13 -0.931,-0.114 -1.853,-0.272 -2.777,-0.421 -1.841,-0.334 -3.681,-0.692 -5.506,-1.099 -3.658,-0.802 -7.293,-1.709 -10.914,-2.678 -5.969,-1.616 -11.898,-3.404 -17.792,-5.314 6.259,3.042 12.581,5.966 18.999,8.69 3.482,1.473 6.992,2.884 10.537,4.207 1.771,0.666 3.556,1.289 5.352,1.89 0.9,0.284 1.802,0.577 2.713,0.828 0.911,0.238 1.823,0.534 2.77,0.547 -0.948,0.118 -1.908,-0.053 -2.849,-0.165 -0.947,-0.126 -1.884,-0.295 -2.825,-0.455 -1.873,-0.351 -3.744,-0.729 -5.604,-1.15 -3.721,-0.834 -7.424,-1.76 -11.109,-2.755 -6.112,-1.655 -12.184,-3.479 -18.224,-5.421 6.404,3.072 12.871,6.032 19.429,8.797 3.55,1.497 7.13,2.932 10.739,4.287 1.805,0.68 3.622,1.325 5.45,1.941 0.915,0.296 1.832,0.597 2.759,0.86 0.927,0.247 1.854,0.559 2.82,0.58 -0.97,0.11 -1.943,-0.077 -2.901,-0.199 -0.962,-0.139 -1.917,-0.313 -2.875,-0.486 -1.904,-0.369 -3.807,-0.767 -5.698,-1.202 -3.787,-0.866 -7.556,-1.814 -11.307,-2.831 -6.312,-1.712 -12.578,-3.614 -18.818,-5.606 6.604,3.128 13.27,6.148 20.022,8.98 3.617,1.523 7.266,2.98 10.941,4.367 1.839,0.694 3.686,1.358 5.546,1.992 0.932,0.308 1.865,0.616 2.806,0.892 0.943,0.255 1.884,0.583 2.867,0.611 -0.987,0.101 -1.976,-0.101 -2.951,-0.231 -0.979,-0.15 -1.949,-0.334 -2.921,-0.519 -1.939,-0.385 -3.873,-0.803 -5.797,-1.252 -3.851,-0.899 -7.688,-1.87 -11.503,-2.911 -6.452,-1.752 -12.86,-3.687 -19.243,-5.707 6.75,3.153 13.556,6.208 20.445,9.083 3.688,1.543 7.402,3.03 11.144,4.447 1.871,0.709 3.75,1.393 5.642,2.043 0.947,0.32 1.896,0.635 2.854,0.923 0.959,0.266 1.914,0.607 2.915,0.645 -1.007,0.093 -2.012,-0.125 -3.003,-0.266 -0.993,-0.162 -1.981,-0.354 -2.969,-0.55 -1.971,-0.402 -3.936,-0.841 -5.894,-1.303 -3.916,-0.928 -7.817,-1.928 -11.699,-2.991 -6.592,-1.793 -13.141,-3.761 -19.67,-5.812 6.897,3.181 13.846,6.269 20.871,9.187 3.758,1.566 7.538,3.083 11.346,4.53 1.904,0.724 3.815,1.426 5.739,2.093 0.962,0.331 1.926,0.655 2.9,0.954 0.975,0.275 1.946,0.631 2.964,0.678 -1.027,0.084 -2.046,-0.15 -3.054,-0.3 -1.01,-0.173 -2.015,-0.373 -3.016,-0.579 -2.004,-0.421 -4.001,-0.879 -5.993,-1.356 -3.982,-0.958 -7.945,-1.987 -11.897,-3.071 -6.731,-1.837 -13.422,-3.837 -20.093,-5.915 7.044,3.206 14.133,6.328 21.295,9.29 3.828,1.589 7.674,3.136 11.547,4.612 1.937,0.738 3.881,1.461 5.836,2.146 0.978,0.341 1.959,0.674 2.948,0.983 0.99,0.285 1.975,0.654 3.01,0.709 -1.044,0.076 -2.078,-0.17 -3.103,-0.33 -1.025,-0.186 -2.047,-0.394 -3.065,-0.612 -2.037,-0.438 -4.065,-0.914 -6.09,-1.406 -4.046,-0.988 -8.075,-2.047 -12.092,-3.152 -6.872,-1.88 -13.704,-3.914 -20.519,-6.018 7.19,3.229 14.423,6.385 21.718,9.393 3.899,1.612 7.811,3.186 11.75,4.696 1.971,0.752 3.944,1.493 5.933,2.194 0.994,0.354 1.99,0.693 2.993,1.015 1.009,0.292 2.007,0.676 3.059,0.74 -1.063,0.066 -2.111,-0.193 -3.154,-0.362 -1.041,-0.198 -2.078,-0.414 -3.113,-0.644 -2.069,-0.455 -4.127,-0.949 -6.185,-1.456 -4.112,-1.02 -8.206,-2.106 -12.292,-3.232 -7.01,-1.926 -13.985,-3.993 -20.944,-6.123 7.337,3.254 14.713,6.442 22.147,9.497 3.966,1.633 7.945,3.237 11.949,4.778 2.002,0.768 4.009,1.527 6.029,2.247 1.01,0.362 2.021,0.712 3.041,1.044 1.024,0.302 2.038,0.699 3.106,0.771 -1.08,0.057 -2.145,-0.215 -3.202,-0.394 -1.058,-0.208 -2.112,-0.433 -3.162,-0.672 -2.102,-0.473 -4.193,-0.986 -6.283,-1.51 -4.176,-1.05 -8.337,-2.167 -12.489,-3.314 -7.15,-1.972 -14.267,-4.069 -21.371,-6.228 7.486,3.278 15.005,6.502 22.572,9.604 4.037,1.655 8.083,3.289 12.151,4.861 2.036,0.783 4.074,1.56 6.126,2.298 1.025,0.373 2.054,0.729 3.089,1.073 1.039,0.312 2.067,0.721 3.154,0.801 -1.099,0.049 -2.178,-0.237 -3.253,-0.424 -1.073,-0.22 -2.143,-0.453 -3.21,-0.703 -2.134,-0.491 -4.257,-1.022 -6.381,-1.561 -4.241,-1.083 -8.466,-2.227 -12.686,-3.395 -7.29,-2.019 -14.549,-4.15 -21.798,-6.332 7.635,3.302 15.296,6.555 23.001,9.708 4.105,1.679 8.217,3.339 12.352,4.945 2.068,0.797 4.137,1.593 6.222,2.347 1.04,0.383 2.084,0.749 3.135,1.104 1.056,0.32 2.099,0.74 3.204,0.832 -1.119,0.039 -2.213,-0.26 -3.305,-0.456 -1.089,-0.231 -2.176,-0.472 -3.257,-0.732 -2.167,-0.51 -4.322,-1.06 -6.478,-1.611 -4.307,-1.117 -8.598,-2.287 -12.884,-3.48 -7.361,-2.049 -14.697,-4.192 -22.024,-6.377 v 0.026 c 7.719,3.294 15.455,6.552 23.227,9.726 4.174,1.704 8.353,3.392 12.552,5.03 2.1,0.814 4.203,1.625 6.318,2.399 1.058,0.393 2.118,0.766 3.184,1.132 1.07,0.329 2.129,0.762 3.25,0.861 -1.136,0.031 -2.244,-0.28 -3.352,-0.485 -1.106,-0.242 -2.209,-0.493 -3.307,-0.761 -2.199,-0.528 -4.387,-1.094 -6.574,-1.664 -4.372,-1.148 -8.73,-2.346 -13.082,-3.562 -7.386,-2.065 -14.749,-4.207 -22.105,-6.38 0,0.023 0.002,0.047 0.003,0.07 7.752,3.266 15.515,6.51 23.304,9.686 4.243,1.729 8.491,3.444 12.755,5.114 M -32.727,164.179 69.797,288.544 -51.01,401.8 l -74.402,5.315 -114.651,0.013 -89.955,-15.99 -79.774,-108.267 111.464,-121.435 c -20.517,-5.143 -38.125,-10.908 -40.094,-13.37 -0.782,-0.976 -2.088,-2.61 -1.326,-38.105 0.343,-16.064 1.228,-38.39 2.587,-48.445 0.589,-4.353 1.164,-5.967 2.461,-6.908 6.319,-4.581 22.086,-5.317 47.29,-6.141 8.433,-0.275 17.717,-0.576 26.752,-1.19 -24.576,-10.789 -68.636,-31.58 -71.357,-63.536 l -1.724,-20.245 7.716,18.797 c 4.164,10.147 14.622,17.525 24.016,17.84 -7.067,-9.033 -12.707,-22.87 -10.992,-32.795 0.957,-5.533 4.035,-9.569 8.903,-11.666 l 10.989,-4.737 -7.281,9.496 c -2.31,3.013 -3.087,5.737 -2.377,8.325 2.619,9.546 24.511,18.321 43.826,26.061 25.771,10.331 50.113,20.087 50.387,35.759 0.001,0.025 -0.004,0.047 -0.004,0.072 0.001,-0.005 0.004,-0.01 0.005,-0.015 0,5.087 -1.937,22.405 -3.946,37.294 l 52.907,-57.64 53.048,64.353 c -1.538,-9.406 -2.658,-20.739 -3.39,-29.555 -0.265,-1.12 -0.42,-2.269 -0.402,-3.412 0,-0.307 0.033,-0.609 0.057,-0.912 -0.247,-3.233 -0.43,-5.892 -0.548,-7.679 -0.121,-0.807 -0.199,-1.634 -0.184,-2.506 0.274,-15.672 24.616,-25.428 50.387,-35.759 19.314,-7.74 41.207,-16.515 43.825,-26.061 0.71,-2.588 -0.067,-5.312 -2.376,-8.325 l -7.282,-9.496 10.99,4.737 c 4.867,2.097 7.945,6.133 8.904,11.666 1.713,9.925 -3.925,23.762 -10.992,32.795 9.393,-0.316 19.854,-7.695 24.018,-17.84 l 7.715,-18.796 -1.726,20.244 c -2.722,31.956 -46.781,52.747 -71.357,63.536 9.034,0.614 18.32,0.915 26.753,1.19 25.202,0.824 40.971,1.56 47.289,6.142 1.298,0.941 1.873,2.557 2.462,6.916 1.359,10.062 2.243,32.385 2.586,48.444 0.761,35.488 -0.544,37.121 -1.326,38.097 -2.329,2.913 -26.554,10.451 -51.588,16.113"
             style="fill:#a1874d;fill-opacity:1;fill-rule:nonzero;stroke:none"
             id="path558" />
        </g>
        <g
           id="g560"
           transform="translate(289.3818,301.8398)">
          <path
             d="M 0,0 0.059,-0.027 Z"
             style="fill:#a1874d;fill-opacity:1;fill-rule:nonzero;stroke:none"
             id="path562" />
        </g>
      </g>
    </g>
  </g>
</svg>
